<mxfile host="app.diagrams.net" modified="2022-06-21T20:57:21.042Z" agent="5.0 (Windows NT 10.0; Win64; x64) AppleWebKit/537.36 (KHTML, like Gecko) Chrome/102.0.5005.115 Safari/537.36" etag="rfNMfwQeBLQ_Qs4bvFqh" version="18.2.0" type="github">
  <diagram id="rex7fv41qaUPttHRLTtf" name="Page-1">
    <mxGraphModel dx="828" dy="780" grid="1" gridSize="10" guides="1" tooltips="1" connect="1" arrows="1" fold="1" page="1" pageScale="1" pageWidth="1100" pageHeight="850" math="0" shadow="0">
      <root>
        <mxCell id="0" />
        <mxCell id="1" parent="0" />
        <mxCell id="WFS-fDEoe331SOPNhY3o-6" style="edgeStyle=orthogonalEdgeStyle;rounded=0;orthogonalLoop=1;jettySize=auto;html=1;entryX=0;entryY=0.5;entryDx=0;entryDy=0;entryPerimeter=0;startArrow=none;" edge="1" parent="1" source="WFS-fDEoe331SOPNhY3o-8" target="WFS-fDEoe331SOPNhY3o-3">
          <mxGeometry relative="1" as="geometry" />
        </mxCell>
        <mxCell id="WFS-fDEoe331SOPNhY3o-1" value="" style="sketch=0;points=[[0,0,0],[0.25,0,0],[0.5,0,0],[0.75,0,0],[1,0,0],[0,1,0],[0.25,1,0],[0.5,1,0],[0.75,1,0],[1,1,0],[0,0.25,0],[0,0.5,0],[0,0.75,0],[1,0.25,0],[1,0.5,0],[1,0.75,0]];outlineConnect=0;fontColor=#232F3E;gradientColor=#945DF2;gradientDirection=north;fillColor=#5A30B5;strokeColor=#ffffff;dashed=0;verticalLabelPosition=bottom;verticalAlign=top;align=center;html=1;fontSize=12;fontStyle=0;aspect=fixed;shape=mxgraph.aws4.resourceIcon;resIcon=mxgraph.aws4.route_53;" vertex="1" parent="1">
          <mxGeometry x="280" y="200" width="78" height="78" as="geometry" />
        </mxCell>
        <mxCell id="WFS-fDEoe331SOPNhY3o-2" value="" style="sketch=0;points=[[0,0,0],[0.25,0,0],[0.5,0,0],[0.75,0,0],[1,0,0],[0,1,0],[0.25,1,0],[0.5,1,0],[0.75,1,0],[1,1,0],[0,0.25,0],[0,0.5,0],[0,0.75,0],[1,0.25,0],[1,0.5,0],[1,0.75,0]];outlineConnect=0;fontColor=#232F3E;gradientColor=#60A337;gradientDirection=north;fillColor=#277116;strokeColor=#ffffff;dashed=0;verticalLabelPosition=bottom;verticalAlign=top;align=center;html=1;fontSize=12;fontStyle=0;aspect=fixed;shape=mxgraph.aws4.resourceIcon;resIcon=mxgraph.aws4.s3;" vertex="1" parent="1">
          <mxGeometry x="720" y="200" width="78" height="78" as="geometry" />
        </mxCell>
        <mxCell id="WFS-fDEoe331SOPNhY3o-5" style="edgeStyle=orthogonalEdgeStyle;rounded=0;orthogonalLoop=1;jettySize=auto;html=1;entryX=0.5;entryY=0;entryDx=0;entryDy=0;entryPerimeter=0;" edge="1" parent="1" source="WFS-fDEoe331SOPNhY3o-3" target="WFS-fDEoe331SOPNhY3o-4">
          <mxGeometry relative="1" as="geometry" />
        </mxCell>
        <mxCell id="WFS-fDEoe331SOPNhY3o-7" style="edgeStyle=orthogonalEdgeStyle;rounded=0;orthogonalLoop=1;jettySize=auto;html=1;" edge="1" parent="1" source="WFS-fDEoe331SOPNhY3o-3" target="WFS-fDEoe331SOPNhY3o-2">
          <mxGeometry relative="1" as="geometry" />
        </mxCell>
        <mxCell id="WFS-fDEoe331SOPNhY3o-3" value="" style="sketch=0;points=[[0,0,0],[0.25,0,0],[0.5,0,0],[0.75,0,0],[1,0,0],[0,1,0],[0.25,1,0],[0.5,1,0],[0.75,1,0],[1,1,0],[0,0.25,0],[0,0.5,0],[0,0.75,0],[1,0.25,0],[1,0.5,0],[1,0.75,0]];outlineConnect=0;fontColor=#232F3E;gradientColor=#945DF2;gradientDirection=north;fillColor=#5A30B5;strokeColor=#ffffff;dashed=0;verticalLabelPosition=bottom;verticalAlign=top;align=center;html=1;fontSize=12;fontStyle=0;aspect=fixed;shape=mxgraph.aws4.resourceIcon;resIcon=mxgraph.aws4.cloudfront;" vertex="1" parent="1">
          <mxGeometry x="560" y="200" width="78" height="78" as="geometry" />
        </mxCell>
        <mxCell id="WFS-fDEoe331SOPNhY3o-4" value="" style="sketch=0;points=[[0,0,0],[0.25,0,0],[0.5,0,0],[0.75,0,0],[1,0,0],[0,1,0],[0.25,1,0],[0.5,1,0],[0.75,1,0],[1,1,0],[0,0.25,0],[0,0.5,0],[0,0.75,0],[1,0.25,0],[1,0.5,0],[1,0.75,0]];outlineConnect=0;fontColor=#232F3E;gradientColor=#F54749;gradientDirection=north;fillColor=#C7131F;strokeColor=#ffffff;dashed=0;verticalLabelPosition=bottom;verticalAlign=top;align=center;html=1;fontSize=12;fontStyle=0;aspect=fixed;shape=mxgraph.aws4.resourceIcon;resIcon=mxgraph.aws4.certificate_manager_3;" vertex="1" parent="1">
          <mxGeometry x="560" y="320" width="78" height="78" as="geometry" />
        </mxCell>
        <mxCell id="WFS-fDEoe331SOPNhY3o-8" value="" style="sketch=0;points=[[0,0,0],[0.25,0,0],[0.5,0,0],[0.75,0,0],[1,0,0],[0,1,0],[0.25,1,0],[0.5,1,0],[0.75,1,0],[1,1,0],[0,0.25,0],[0,0.5,0],[0,0.75,0],[1,0.25,0],[1,0.5,0],[1,0.75,0]];outlineConnect=0;fontColor=#232F3E;gradientColor=#F54749;gradientDirection=north;fillColor=#C7131F;strokeColor=#ffffff;dashed=0;verticalLabelPosition=bottom;verticalAlign=top;align=center;html=1;fontSize=12;fontStyle=0;aspect=fixed;shape=mxgraph.aws4.resourceIcon;resIcon=mxgraph.aws4.waf;" vertex="1" parent="1">
          <mxGeometry x="421" y="200" width="78" height="78" as="geometry" />
        </mxCell>
        <mxCell id="WFS-fDEoe331SOPNhY3o-10" value="" style="edgeStyle=orthogonalEdgeStyle;rounded=0;orthogonalLoop=1;jettySize=auto;html=1;entryX=0;entryY=0.5;entryDx=0;entryDy=0;entryPerimeter=0;endArrow=none;" edge="1" parent="1" source="WFS-fDEoe331SOPNhY3o-1" target="WFS-fDEoe331SOPNhY3o-8">
          <mxGeometry relative="1" as="geometry">
            <mxPoint x="409" y="239" as="sourcePoint" />
            <mxPoint x="533" y="239" as="targetPoint" />
          </mxGeometry>
        </mxCell>
        <mxCell id="WFS-fDEoe331SOPNhY3o-11" value="WAF" style="fillColor=none;strokeColor=#b85450;dashed=1;verticalAlign=top;fontStyle=0;rounded=1;" vertex="1" parent="1">
          <mxGeometry x="400" y="120" width="120" height="320" as="geometry" />
        </mxCell>
        <mxCell id="WFS-fDEoe331SOPNhY3o-12" value="WAF" style="fillColor=none;strokeColor=#b85450;dashed=1;verticalAlign=top;fontStyle=0;rounded=1;" vertex="1" parent="1">
          <mxGeometry x="539" y="120" width="120" height="320" as="geometry" />
        </mxCell>
        <mxCell id="WFS-fDEoe331SOPNhY3o-13" value="&lt;font face=&quot;Verdana&quot;&gt;&lt;b&gt;AWS Acount&lt;/b&gt;&lt;/font&gt;" style="points=[[0,0],[0.25,0],[0.5,0],[0.75,0],[1,0],[1,0.25],[1,0.5],[1,0.75],[1,1],[0.75,1],[0.5,1],[0.25,1],[0,1],[0,0.75],[0,0.5],[0,0.25]];outlineConnect=0;gradientColor=none;html=1;whiteSpace=wrap;fontSize=12;fontStyle=0;container=1;pointerEvents=0;collapsible=0;recursiveResize=0;shape=mxgraph.aws4.group;grIcon=mxgraph.aws4.group_aws_cloud;strokeColor=#232F3E;fillColor=none;verticalAlign=top;align=left;spacingLeft=30;fontColor=#232F3E;dashed=0;rounded=1;" vertex="1" parent="1">
          <mxGeometry x="240" y="80" width="600" height="400" as="geometry" />
        </mxCell>
        <mxCell id="WFS-fDEoe331SOPNhY3o-14" value="" style="sketch=0;outlineConnect=0;fontColor=#232F3E;gradientColor=none;fillColor=#BF0816;strokeColor=none;dashed=0;verticalLabelPosition=bottom;verticalAlign=top;align=center;html=1;fontSize=12;fontStyle=0;aspect=fixed;pointerEvents=1;shape=mxgraph.aws4.waf_rule;rounded=1;fontFamily=Verdana;" vertex="1" parent="WFS-fDEoe331SOPNhY3o-13">
          <mxGeometry x="181" y="240" width="78" height="78" as="geometry" />
        </mxCell>
      </root>
    </mxGraphModel>
  </diagram>
</mxfile>
